<svg width="130" height="30" viewBox="0 0 130 30" fill="none" xmlns="http://www.w3.org/2000/svg">
<g clip-path="url(#clip0_0_9)">
<mask id="mask0_0_9" style="mask-type:luminance" maskUnits="userSpaceOnUse" x="0" y="0" width="29" height="29">
<path d="M0.505951 14.6789C0.505951 22.5068 6.85178 28.8523 14.6791 28.8523C22.5072 28.8523 28.8522 22.5068 28.8522 14.6789C28.8522 6.85145 22.5072 0.505939 14.6791 0.505939C6.85178 0.505939 0.505951 6.85145 0.505951 14.6789Z" fill="white"/>
</mask>
<g mask="url(#mask0_0_9)">
<path d="M0.505951 14.6789C0.505951 22.5068 6.85178 28.8523 14.6791 28.8523C22.5072 28.8523 28.8522 22.5068 28.8522 14.6789C28.8522 6.85145 22.5072 0.505939 14.6791 0.505939C6.85178 0.505939 0.505951 6.85145 0.505951 14.6789Z" fill="url(#paint0_radial_0_9)"/>
</g>
<mask id="mask1_0_9" style="mask-type:luminance" maskUnits="userSpaceOnUse" x="0" y="0" width="130" height="30">
<path d="M0 0H130V29.3585H0V0Z" fill="white"/>
</mask>
<g mask="url(#mask1_0_9)">
<path d="M11.2306 23.4119L7.50685 20.5645C8.68135 19.2295 9.91249 17.9455 11.1969 16.7158C11.7047 16.2189 12.0251 15.9038 12.1568 15.7704C11.7432 15.7064 10.5626 15.4383 8.61584 14.9673C7.21059 14.6271 6.28627 14.3754 5.84155 14.2136L7.37518 9.83065C9.49572 10.7079 11.402 11.6725 13.092 12.7294C12.6976 10.0068 12.5014 7.7845 12.5014 6.06308H16.8827C16.8827 7.29798 16.6617 9.53686 16.2181 12.781C16.5462 12.6484 17.2603 12.3291 18.3634 11.8189C19.8707 11.1457 21.2609 10.5705 22.534 10.094L23.8046 14.5634C21.9604 14.9737 19.8262 15.3764 17.4009 15.7704L20.3766 19.1514C20.9708 19.8351 21.4415 20.3944 21.7894 20.8269L17.9779 23.3247L14.6681 17.7442C13.668 19.5178 12.5236 21.4076 11.2306 23.4119Z" fill="white"/>
</g>
<mask id="mask2_0_9" style="mask-type:luminance" maskUnits="userSpaceOnUse" x="0" y="0" width="130" height="30">
<path d="M0 0H130V29.3585H0V0Z" fill="white"/>
</mask>
<g mask="url(#mask2_0_9)">
<path d="M35.9864 9.23648C35.9439 10.0984 35.9006 12.1214 35.9006 12.3801C35.8579 13.5428 35.8579 18.3204 35.9006 21.3337C35.9439 23.0129 36.3312 24.1758 38.0103 25.1225C38.0103 25.1225 37.0628 26.5006 36.7183 27.0169C34.2215 25.638 33.619 23.5721 33.619 21.1613V14.3601C33.619 12.3363 33.5762 10.7003 33.619 9.36634C33.102 9.19386 32.1986 9.15073 31.4668 9.10728C31.5096 8.54801 31.5096 7.7733 31.5955 7.2137C32.1987 7.2137 33.4894 7.12746 33.8772 7.04138C33.7911 6.65328 33.8772 6.13779 33.8772 5.96531C33.9197 4.58705 33.9636 3.9422 34.049 2.95155C34.049 2.95155 35.9862 2.3062 36.3738 2.04862C36.2879 3.08124 36.2015 5.27618 36.1158 7.2565C37.2784 7.2137 38.6995 7.04138 39.3874 7.04138C39.3874 7.04138 39.3446 8.07334 39.4306 9.10728C38.9144 9.02203 36.6757 9.23648 35.9864 9.23648ZM46.0606 8.33241C44.6389 8.33241 42.6594 10.3983 42.7885 14.2311C43.4768 14.317 45.0703 14.2738 45.8011 14.1448C47.0075 14.0159 48.3423 13.8443 48.8581 13.7567C48.5141 10.6146 48.0401 8.33241 46.0606 8.33241ZM46.7917 25.769C45.2853 25.769 43.2618 24.648 42.1859 23.1426C40.9803 21.4199 40.3343 19.0521 40.3343 15.7374C40.3343 8.85003 43.0892 6.22289 46.5766 6.22289C49.8914 6.22289 51.1395 10.7441 51.3123 15.6949C47.9109 15.9958 43.6922 16.3397 42.7021 16.2545C42.8318 18.5795 43.0467 20.1717 43.7347 21.5057C44.4669 22.7977 45.9309 23.6583 46.9206 23.6583C47.9109 23.6583 50.1926 23.1426 50.9245 22.6685C51.0541 23.0552 51.3985 23.6583 51.6996 24.0885C51.2693 24.7785 48.0832 25.769 46.7916 25.769M56.6062 16.8572C55.4879 17.4594 54.1539 18.4935 54.1539 19.9998C54.1539 23.0129 54.885 24.0457 56.22 24.0457C57.5108 24.0457 59.4051 22.3237 60.5246 21.1613C60.6536 20.7742 60.6536 16.0386 60.6536 15.1778C60.0943 15.3493 57.5531 16.3397 56.6062 16.8572ZM60.9548 27.5755C60.9548 26.9742 60.6536 24.5188 60.567 23.6583C59.6202 24.648 57.6395 26.4566 55.4443 26.4566C54.1108 26.4566 51.9576 24.6919 51.9576 20.5163C51.9576 18.9238 52.8186 16.5122 54.5407 15.565C57.4246 14.0159 59.6202 13.4988 60.6536 13.0682C60.6964 10.9164 60.5246 9.53751 59.3621 8.9789C57.9845 8.33257 56.7359 8.11712 55.5733 8.11712C55.5733 8.11712 55.7028 6.17977 55.7028 5.79315C57.167 5.96531 60.2663 6.52524 61.3424 7.25633C62.4623 7.94513 62.8063 10.0556 62.8063 10.9595C62.8063 11.2606 62.8486 17.8467 62.8486 22.282C62.8486 24.1758 63.0648 26.5007 63.1506 27.017C62.4183 27.189 61.557 27.4038 60.9546 27.5755M82.3925 25.3804C82.1344 25.4228 80.9283 25.5963 80.0257 25.6812C80.1113 24.3899 80.1541 22.3664 80.1541 21.5057V11.8194C80.1541 9.92627 80.1975 8.89381 79.1636 8.89381C77.9164 8.89381 75.3758 11.0884 74.816 11.691C74.9019 12.9823 74.902 24.8641 74.9449 25.4669H72.4481C72.5781 25.1656 72.6636 22.7121 72.6636 22.4961C72.6636 21.3337 72.4911 12.4657 72.4911 11.3468C72.4911 8.80592 72.2758 8.54801 70.7267 8.54801C69.5642 8.54801 67.8848 9.32322 67.1961 9.71099C67.1961 10.7002 67.1102 23.4861 67.1102 26.2412C66.4212 26.0269 65.2593 25.8119 64.9145 25.8119C64.9581 24.648 65.0007 19.397 65.0007 19.0095L65.0435 5.83627C65.6887 5.96531 66.5073 6.17976 66.9802 6.13779C66.9802 6.13779 67.1102 7.2137 67.2394 7.68689C68.7895 6.91169 70.7269 6.35275 72.1902 6.35275C73.0507 6.35275 74.0415 6.74019 74.4278 8.07351C74.515 8.33257 74.6434 9.02203 74.6434 9.45259C75.9788 8.20419 78.1746 6.61098 79.6804 6.61098C81.8331 6.61098 82.4356 8.28961 82.4356 11.3039L82.3925 25.3804ZM86.087 26.3658C86.1431 25.1414 86.1431 24.4139 86.0565 23.2491C88.7344 23.2491 90.2775 22.2884 90.2775 21.0076C90.2775 19.4934 89.0273 17.7741 88.1242 16.5221C86.8428 14.8631 85.6186 12.9996 85.6186 10.9892C85.6186 7.40775 88.1542 6.03904 93.2497 6.03904C93.1921 6.94131 93.1042 7.87337 93.2205 8.86402C90.5127 8.92097 88.8507 9.41786 88.8507 10.6691C88.8507 11.8921 89.0851 12.1833 90.8615 14.8334C92.0837 16.5805 93.4235 18.5905 93.4235 20.6003C93.4235 24.211 91.6471 25.7836 86.087 26.3658ZM103.149 25.4037C102.685 23.7159 99.5986 16.6098 98.5502 14.2801C98.4905 15.0956 98.5206 16.5221 98.5206 17.5119C98.4905 20.4829 98.5502 25.6085 98.5502 25.6085C97.6758 25.4037 96.3933 25.2591 95.1716 25.1715C95.2869 23.6866 95.6069 18.9099 95.6362 15.1534C95.6658 11.8921 95.4922 7.84522 95.4624 6.35917C96.3077 6.35917 97.5016 6.2721 98.2874 6.12512C98.4329 7.14556 101.519 14.339 102.976 17.2794C102.976 16.493 103.064 12.0376 102.946 9.50427C102.917 8.54308 102.829 7.4359 102.685 6.6495C103.878 6.5914 104.84 6.47586 105.918 6.24248V25.6085C104.812 25.5214 104.053 25.4916 103.149 25.4037M112.73 11.6587C112.527 13.1441 111.74 18.2114 111.595 19.0849C112.12 18.9977 113.576 19.0276 114.188 18.9391C113.954 17.8319 113.051 13.058 112.73 11.6587ZM115.702 26.2784C115.585 25.2003 115.031 23.3657 114.885 22.2585C114.856 22.056 114.826 21.8513 114.826 21.6763C113.603 21.7333 112.38 21.7916 111.157 21.8513C111.014 22.6678 110.46 25.3463 110.342 26.2491C109.354 25.8129 108.159 25.3743 107.314 25.1414C107.605 23.9486 109.614 15.3287 110.547 9.27072C110.691 8.31035 110.954 6.91169 110.954 6.4171C111.654 6.32954 113.458 6.21383 114.1 6.09665C114.331 7.14556 118.526 24.2111 118.846 25.5214C118.059 25.6663 116.575 26.0158 115.702 26.2785M123.302 9.00853C123.33 9.82488 123.388 11.1345 123.417 12.213C123.448 13.058 123.505 14.5135 123.505 15.3287C125.399 15.2403 126.769 13.5824 126.769 11.8625C126.769 9.70737 125.545 9.00853 123.302 9.00853ZM123.477 18.1826C123.477 20.3677 123.505 23.2491 123.679 24.9095C122.398 25.3744 120.331 25.7836 120.331 25.7836C120.331 23.4247 120.419 18.3561 120.331 13.3772C120.272 10.8725 120.069 7.55341 119.837 6.62119C120.914 6.32954 121.875 6.24264 122.72 6.21383C126.681 6.06735 130 7.37763 130 12.0376C130 14.5716 127.118 17.8921 123.477 18.1826Z" fill="black"/>
</g>
</g>
<defs>
<radialGradient id="paint0_radial_0_9" cx="0" cy="0" r="1" gradientUnits="userSpaceOnUse" gradientTransform="translate(14.6791 9.1244) scale(14.1731)">
<stop stop-color="#FFA100"/>
<stop offset="1" stop-color="#FF5A00"/>
</radialGradient>
<clipPath id="clip0_0_9">
<rect width="130" height="29.3585" fill="white"/>
</clipPath>
</defs>
</svg>
